<?xml version="1.0" encoding="UTF-8"?>
<!DOCTYPE svg PUBLIC "-//W3C//DTD SVG 1.1//EN" "http://www.w3.org/Graphics/SVG/1.1/DTD/svg11.dtd">
<!-- Creator: CorelDRAW 2020 (64-Bit) -->
<svg xmlns="http://www.w3.org/2000/svg" xml:space="preserve" width="14.578mm" height="14.577mm" version="1.1" style="shape-rendering:geometricPrecision; text-rendering:geometricPrecision; image-rendering:optimizeQuality; fill-rule:evenodd; clip-rule:evenodd"
viewBox="0 0 1457.8 1457.7"
 xmlns:xlink="http://www.w3.org/1999/xlink"
 xmlns:xodm="http://www.corel.com/coreldraw/odm/2003">
 <defs>
  <style type="text/css">
   <![CDATA[
    .fil0 {fill:#999999}
    .fil1 {fill:white}
   ]]>
  </style>
 </defs>
 <g id="Слой_x0020_1">
  <metadata id="CorelCorpID_0Corel-Layer"/>
  <g id="_2258813643520">
   <path class="fil0" d="M653.83 669.22c0,-56.14 0.1,-112.3 -0.01,-168.45 -0.08,-42.74 5.35,-96.42 67.39,-96.41 68.07,0.01 67.43,63.31 67.38,99.78 -0.07,55.03 0,110.06 0,165.08 56.15,0 112.3,0.11 168.45,-0.01 27.42,-0.05 51.67,0.13 70.6,13.69 33.55,24.02 35.25,83.95 -2.05,108.73 -22.99,15.27 -42.4,12.4 -71.92,12.36 -55.03,-0.08 -110.06,-0.01 -165.08,-0.01 0,56.15 -0.11,112.31 0.01,168.45 0.08,42.7 -5.47,96.38 -67.39,96.4 -68.14,0.01 -67.43,-63.54 -67.39,-99.77 0.08,-55.02 0.01,-110.05 0.01,-165.08 -56.15,0 -112.31,-0.1 -168.45,0.01 -27.38,0.06 -51.68,-0.13 -70.59,-13.69 -34.03,-24.39 -34.79,-84.43 1.95,-108.8 22.94,-15.21 42.53,-12.32 72.01,-12.28 55.02,0.07 110.05,0 165.08,0zm-332.66 -658c-55.26,6.37 -96.29,21.57 -136.86,46.87 -16.96,10.56 -40,26.08 -52.67,38.49 -19.09,18.71 -25.53,27.85 -45.62,45.23 -24.55,21.23 -56.74,77.3 -70.37,111.6 -21.33,53.68 -22.15,98.55 -22.14,159.77 0.01,68.89 -3.89,673.21 2.31,725.32 8.23,69.17 41.04,140.91 85.05,187.99l45.91 44.95c22.15,24.79 70.58,54.97 111.14,70.81 54.11,21.13 97.54,22.06 159.87,22.05 68.47,-0.01 673.35,3.75 725.05,-2.21 52.26,-6.03 99.25,-23.77 135.75,-46.64 67.83,-42.5 137.99,-119.33 168.12,-195.72 21.19,-53.72 22.21,-98.34 22.2,-159.71 -0.02,-69.16 3.86,-672.87 -2.35,-725.3 -8.98,-75.75 -43.41,-147.51 -95.41,-197.74l-35.46 -35.28c-21.6,-23.96 -71,-55.54 -111.11,-70.82 -55.38,-21.09 -96.49,-21.98 -159.95,-21.98 -69.46,0.01 -670.42,-3.79 -723.46,2.32z"/>
   <path class="fil1" d="M653.83 669.22c-55.03,0 -110.06,0.07 -165.08,0 -29.48,-0.04 -49.07,-2.93 -72.01,12.28 -36.74,24.37 -35.98,84.41 -1.95,108.8 18.91,13.56 43.21,13.75 70.59,13.69 56.14,-0.11 112.3,-0.01 168.45,-0.01 0,55.03 0.07,110.06 -0.01,165.08 -0.04,36.23 -0.75,99.78 67.39,99.77 61.92,-0.02 67.47,-53.7 67.39,-96.4 -0.12,-56.14 -0.01,-112.3 -0.01,-168.45 55.02,0 110.05,-0.07 165.08,0.01 29.52,0.04 48.93,2.91 71.92,-12.36 37.3,-24.78 35.6,-84.71 2.05,-108.73 -18.93,-13.56 -43.18,-13.74 -70.6,-13.69 -56.15,0.12 -112.3,0.01 -168.45,0.01 0,-55.02 -0.07,-110.05 0,-165.08 0.05,-36.47 0.69,-99.77 -67.38,-99.78 -62.04,-0.01 -67.47,53.67 -67.39,96.41 0.11,56.15 0.01,112.31 0.01,168.45z"/>
  </g>
 </g>
</svg>
