<svg width="42" height="42" viewBox="0 0 42 42" fill="none" xmlns="http://www.w3.org/2000/svg">
<path fill-rule="evenodd" clip-rule="evenodd" d="M3.18269 21.263C3.18269 18.2868 3.72421 16.2834 4.77589 13.7506C5.48457 12.0434 6.60345 10.5202 7.83881 9.18488C8.05385 8.95248 8.13001 8.80688 8.36969 8.5672C10.5548 6.3818 13.7922 4.48508 16.7929 3.86544C21.0906 2.97812 24.1656 3.278 28.2497 4.9734C30.5586 5.93184 32.796 7.80812 34.4564 9.67656L36.2694 12.2934C36.5408 12.7924 36.7984 13.1998 37.0268 13.7506C38.6816 17.7366 39.0406 20.9242 38.1485 25.139C37.5146 28.133 36.004 30.8079 33.9639 33.0129C33.7489 33.2453 33.6727 33.3909 33.433 33.6306L29.7068 36.467C28.2119 37.2795 26.7567 37.9717 25.0098 38.3323C20.3436 39.2955 16.3564 38.8416 12.1494 36.4955C11.6768 36.232 11.2044 35.9579 10.7875 35.6424C9.59189 34.7374 10.0147 35.1118 8.98737 34.1614C7.84693 33.1061 6.77677 31.973 5.96785 30.6183C4.94389 28.9039 4.09101 27.2569 3.66793 25.2073C3.41565 23.9857 3.18269 22.7674 3.18269 21.263V21.263ZM19.9928 0.098877H21.516C23.3164 0.167197 25.1361 0.475757 27.0538 1.00132C27.3881 1.09288 27.6429 1.17744 27.9879 1.29756C30.0826 2.0278 31.9885 3.1618 33.7444 4.48256C35.2967 5.65016 37.0431 7.457 38.1107 9.05748L38.6363 9.84428C39.0952 10.56 39.66 11.4991 39.98 12.2741C40.2421 12.9089 40.4949 13.4036 40.7231 14.074C41.4424 16.1896 41.8246 18.1919 41.9014 20.1903V21.7135C41.833 23.5139 41.5245 25.3336 40.9989 27.2513C40.4605 29.2166 39.6048 30.7636 38.5733 32.4546C38.1015 33.2282 37.5272 33.9299 36.968 34.6226C36.7225 34.9267 36.6001 35.032 36.3428 35.3097C36.1157 35.5547 36.025 35.7132 35.7702 35.9677C35.5056 36.2323 35.3219 36.3379 35.0708 36.5806C34.0801 37.5371 32.6258 38.6031 31.3972 39.3056C30.3606 39.8986 29.0746 40.53 27.9263 40.9206C27.3131 41.129 26.5632 41.3807 25.9671 41.5047C23.4208 42.0342 22.9913 42.0989 20.3271 42.0989C15.347 42.0989 10.3294 39.9115 6.69053 36.5403C6.44553 36.3132 6.28705 36.2225 6.03253 35.9677C4.94053 34.876 3.49405 32.9924 2.69465 31.5947C1.79221 30.0174 0.868207 27.9561 0.495527 26.1646C-0.0339528 23.6183 -0.0986328 23.1888 -0.0986328 20.5246C-0.0986328 18.7978 0.197607 17.413 0.509527 15.9651C0.986647 13.7517 2.06521 11.652 3.22945 9.7432C3.42181 9.42764 3.52849 9.305 3.72421 9.00764C3.94093 8.6792 4.05825 8.5574 4.28505 8.25584C4.49365 7.97864 4.63505 7.82268 4.83469 7.57516L6.03253 6.23004C8.09725 4.16504 11.1179 2.2154 13.8764 1.27712C15.9921 0.557797 17.9944 0.175597 19.9928 0.098877V0.098877Z" fill="#0ACC41"/>
<path fill-rule="evenodd" clip-rule="evenodd" d="M19.2604 12.7315V19.2942H12.7798C11.2978 19.2942 10.6294 21.0716 11.5655 22.067C11.7508 22.2644 12.1865 22.5752 12.5337 22.5752H19.2604V29.1378C19.2604 31.2012 22.5415 31.2012 22.5415 29.1378V22.5752H29.2682C29.6154 22.5752 30.0511 22.2644 30.2364 22.067C31.1725 21.0716 30.5041 19.2942 29.0221 19.2942H22.5415V12.7315C22.5415 10.6878 19.2604 10.6878 19.2604 12.7315Z" fill="#0ACC41"/>
</svg>
