<svg width="11" height="11" viewBox="0 0 11 11" fill="none" xmlns="http://www.w3.org/2000/svg">
<path fill-rule="evenodd" clip-rule="evenodd" d="M4.56305 9.72638H6.36792C6.3115 9.84387 6.3149 9.86904 6.23319 9.97842C6.17317 10.0587 6.12362 10.1225 6.04602 10.178C5.66057 10.4533 5.28995 10.4573 4.8977 10.1867C4.8118 10.1274 4.76846 10.0726 4.70707 9.99058C4.6196 9.87368 4.62391 9.85315 4.56305 9.72638ZM3.85399 8.69497V8.43711H7.07698C7.07698 8.73321 7.12542 9.08175 6.69022 9.08175H4.24075C3.98755 9.08175 3.85399 8.94818 3.85399 8.69497ZM7.09842 7.79247H3.83255C3.83255 7.45675 3.64708 6.96896 3.53182 6.73948C3.22875 6.13597 2.9409 5.97919 2.68698 5.52154C2.23812 4.71274 2.11325 3.8043 2.39541 2.91724C2.74314 1.82404 3.67303 0.982021 4.80827 0.753326C5.11691 0.691151 5.52289 0.657023 5.86218 0.713053C6.22547 0.773136 6.46723 0.833611 6.75409 0.959923C7.36751 1.23 7.96883 1.74107 8.26596 2.32739C8.47627 2.74235 8.65141 3.12848 8.66703 3.6453C8.67004 3.7467 8.69508 3.79299 8.68926 3.90256C8.66657 4.33465 8.60649 4.6994 8.44613 5.10056L8.25903 5.49356C8.20947 5.58999 8.09762 5.7573 8.02747 5.84222C7.77983 6.14199 7.48492 6.50791 7.33756 6.87122C7.24552 7.09815 7.09842 7.48807 7.09842 7.79247ZM1.5979 3.73127C1.5979 4.51412 1.6755 4.97811 2.01329 5.65805C2.08834 5.80914 2.17699 5.95749 2.26799 6.09092C2.59578 6.57139 3.12238 6.98871 3.18638 7.85851C3.24855 8.70418 3.06799 9.02957 3.54732 9.49586C3.60753 9.55444 3.67055 9.59641 3.75403 9.63296C4.02626 9.75214 3.76894 9.75266 4.10712 10.2898C4.5235 10.9508 5.35186 11.2071 6.07655 10.9176C6.51992 10.7405 6.90995 10.3015 7.02141 9.84269C7.05724 9.69507 7.02586 9.6965 7.14628 9.64525C7.23329 9.60818 7.29612 9.57575 7.36169 9.51691C7.71066 9.20401 7.72158 8.99165 7.72158 8.54453C7.72158 8.29746 7.7323 8.09871 7.74361 7.87897C7.76721 7.41988 8.05055 6.8216 8.35016 6.48725C8.74581 6.04575 9.00966 5.54396 9.18552 4.9804C9.5256 3.89021 9.27554 2.56092 8.63644 1.67752C8.45888 1.43209 8.4071 1.37639 8.19967 1.16887C7.54931 0.51855 6.58915 0.0354004 5.59441 0.0354004C4.61574 0.0354004 3.98474 0.218592 3.23496 0.727044C2.70038 1.0895 2.24845 1.64751 1.96289 2.22684C1.79291 2.57164 1.5979 3.21909 1.5979 3.73127Z" fill="white"/>
<path fill-rule="evenodd" clip-rule="evenodd" d="M5.14307 1.60407C5.14307 1.84866 5.2327 1.94999 5.48459 1.9717C6.17991 2.03159 6.72364 2.28303 7.10281 2.8889C7.48205 3.49477 7.31567 3.92993 7.46859 4.11318C7.657 4.33881 8.04376 4.20249 8.04376 3.94627C8.04376 3.48182 7.97583 3.18572 7.80716 2.80763C7.67001 2.50022 7.39373 2.15143 7.13504 1.93267C6.45109 1.35406 5.14307 1.06404 5.14307 1.60407Z" fill="white"/>
<path fill-rule="evenodd" clip-rule="evenodd" d="M9.7627 5.92315C9.7627 6.12543 9.96765 6.26783 10.0796 6.37975C10.1847 6.48482 10.3554 6.71822 10.5362 6.71822C10.7185 6.71822 10.88 6.5702 10.88 6.3959C10.88 6.18747 10.6778 6.05404 10.5631 5.93923C10.458 5.83417 10.2873 5.60083 10.1064 5.60083C9.92417 5.60083 9.7627 5.74885 9.7627 5.92315Z" fill="white"/>
<path fill-rule="evenodd" clip-rule="evenodd" d="M0.0507812 6.37439C0.0507812 6.55667 0.198725 6.71822 0.37308 6.71822C0.58143 6.71822 0.714861 6.516 0.829659 6.40126C0.932102 6.29875 1.16804 6.11981 1.16804 5.94466C1.16804 5.76238 1.0201 5.60083 0.845742 5.60083C0.637391 5.60083 0.503961 5.80298 0.389162 5.91779C0.284105 6.02285 0.0507812 6.19355 0.0507812 6.37439Z" fill="white"/>
<path fill-rule="evenodd" clip-rule="evenodd" d="M9.7627 2.50647C9.7627 2.68875 9.91064 2.8503 10.085 2.8503C10.2933 2.8503 10.4268 2.64815 10.5416 2.53334C10.644 2.4309 10.88 2.25189 10.88 2.07674C10.88 1.89446 10.732 1.73291 10.5577 1.73291C10.3493 1.73291 10.2159 1.93513 10.1011 2.04987C9.99602 2.15493 9.7627 2.3257 9.7627 2.50647Z" fill="white"/>
<path fill-rule="evenodd" clip-rule="evenodd" d="M0.0507812 2.05523C0.0507812 2.25751 0.255732 2.39991 0.367654 2.5119C0.472712 2.61696 0.643471 2.8503 0.824298 2.8503C1.00656 2.8503 1.16804 2.70228 1.16804 2.52798C1.16804 2.31956 0.965901 2.18618 0.851102 2.07138C0.746045 1.96631 0.57535 1.73291 0.394523 1.73291C0.212258 1.73291 0.0507812 1.88093 0.0507812 2.05523Z" fill="white"/>
<path fill-rule="evenodd" clip-rule="evenodd" d="M-0.0351562 4.18262C-0.0351562 4.39124 0.0695091 4.54789 0.244191 4.54789H0.974692C1.34569 4.54789 1.34569 3.90332 0.974692 3.90332H0.244191C0.112395 3.90332 -0.0351562 4.05088 -0.0351562 4.18262Z" fill="white"/>
<path fill-rule="evenodd" clip-rule="evenodd" d="M9.67676 4.18262C9.67676 4.39124 9.78142 4.54789 9.95611 4.54789H10.6866C11.0576 4.54789 11.0576 3.90332 10.6866 3.90332H9.95611C9.82431 3.90332 9.67676 4.05088 9.67676 4.18262Z" fill="white"/>
</svg>
