<?xml version="1.0" encoding="UTF-8"?>
<!DOCTYPE svg PUBLIC "-//W3C//DTD SVG 1.1//EN" "http://www.w3.org/Graphics/SVG/1.1/DTD/svg11.dtd">
<!-- Creator: CorelDRAW 2020 (64-Bit) -->
<svg xmlns="http://www.w3.org/2000/svg" xml:space="preserve" width="15mm" height="8.8378mm" version="1.1" style="shape-rendering:geometricPrecision; text-rendering:geometricPrecision; image-rendering:optimizeQuality; fill-rule:evenodd; clip-rule:evenodd"
viewBox="0 0 1500 883.78"
 xmlns:xlink="http://www.w3.org/1999/xlink"
 xmlns:xodm="http://www.corel.com/coreldraw/odm/2003">
 <defs>
  <style type="text/css">
   <![CDATA[
    .fil0 {fill:black}
   ]]>
  </style>
 </defs>
 <g id="Слой_x0020_1">
  <metadata id="CorelCorpID_0Corel-Layer"/>
  <path class="fil0" d="M1370.5 5.12c-53.78,0 -62.52,22.97 -100.35,60.79 -51.17,51.17 -509.61,505.58 -520.75,522.22l-91.55 -90.08c-73.01,-73.01 -450.05,-454.76 -482.19,-478.76 -31.5,-23.51 -72.97,-19.27 -100.6,2.91 -9.81,7.87 -60,57.61 -67.58,70.11 -6.1,10.08 -9.58,19.93 -11.01,29.49l0 20.66c6.63,45.38 54.73,82.92 78.37,106.56l607.85 607.97c73.76,73.11 130.98,-3.54 172.91,-45.47l607.91 -607.91c27.64,-27.53 32.96,-38.02 32.96,-75.44 0,-32.24 -30.25,-58.08 -47.6,-75.44 -20.06,-20.05 -40.45,-47.61 -78.37,-47.61z"/>
 </g>
</svg>
