<svg width="9" height="11" viewBox="0 0 9 11" fill="none" xmlns="http://www.w3.org/2000/svg">
<path d="M4.37345 0.0786133C5.02386 0.0786133 5.58058 0.47892 5.7797 1.07866H7.37367C8.20215 1.07866 8.87377 1.75007 8.87377 2.57848V9.57831C8.87377 10.4067 8.20215 11.0783 7.37367 11.0783H1.37324C0.544916 11.0783 -0.126709 10.4067 -0.126709 9.57831V2.57848C-0.126709 1.75007 0.544916 1.07866 1.37324 1.07866H2.9672C3.16633 0.47892 3.72304 0.0786133 4.37345 0.0786133ZM4.37345 1.07866C4.07276 1.07866 3.87347 1.27777 3.87347 1.5786C3.87347 1.87927 4.07276 2.07854 4.37345 2.07854C4.67431 2.07854 4.87343 1.87927 4.87343 1.5786C4.87343 1.27777 4.67431 1.07866 4.37345 1.07866ZM1.37324 2.07854C1.09713 2.07854 0.873255 2.3024 0.873255 2.57848V9.57831C0.873255 9.85439 1.09713 10.0782 1.37324 10.0782H7.37367C7.64977 10.0782 7.87365 9.85439 7.87365 9.57831V2.57848C7.87365 2.3024 7.64977 2.07854 7.37367 2.07854H6.87368V2.57848C6.87368 2.85473 6.64981 3.07842 6.37354 3.07842H2.37336C2.09726 3.07842 1.87338 2.85473 1.87338 2.57848V2.07854H1.37324ZM6.34622 4.69958C6.34751 4.69829 6.34879 4.69701 6.35008 4.69572C6.50324 4.54675 6.74817 4.55029 6.89715 4.70343C7.0487 4.85931 7.04693 5.10824 6.89313 5.26203L4.22704 7.9279C4.03177 8.12316 3.71517 8.12316 3.5199 7.9279L2.35375 6.76202C2.20011 6.60823 2.19834 6.35946 2.3499 6.20342C2.35118 6.20213 2.35247 6.20085 2.35375 6.19956C2.50483 6.0485 2.74976 6.0485 2.90083 6.19956L3.87347 7.17213L6.34622 4.69958Z" fill="white"/>
</svg>
