<?xml version="1.0" encoding="UTF-8"?>
<!DOCTYPE svg PUBLIC "-//W3C//DTD SVG 1.1//EN" "http://www.w3.org/Graphics/SVG/1.1/DTD/svg11.dtd">
<!-- Creator: CorelDRAW 2020 (64-Bit) -->
<svg xmlns="http://www.w3.org/2000/svg" xml:space="preserve" width="10.498mm" height="14.319mm" version="1.1" style="shape-rendering:geometricPrecision; text-rendering:geometricPrecision; image-rendering:optimizeQuality; fill-rule:evenodd; clip-rule:evenodd"
viewBox="0 0 1049.8 1431.9"
 xmlns:xlink="http://www.w3.org/1999/xlink"
 xmlns:xodm="http://www.corel.com/coreldraw/odm/2003">
 <defs>
  <style type="text/css">
   <![CDATA[
    .fil0 {fill:black}
   ]]>
  </style>
 </defs>
 <g id="Слой_x0020_1">
  <metadata id="CorelCorpID_0Corel-Layer"/>
  <path class="fil0" d="M95.4 1286.17l0 -1187.02 858.94 0 0 1187.02 -364.79 -291.35c-73.83,-59.77 -71,-47.92 -180.31,41.51 -36.97,30.24 -281.3,228.05 -313.84,249.84zm-95.44 -1240.71l0 1348.08c0,24.45 37.55,65.82 87.2,24.57 127.07,-105.55 276.55,-221.87 407.49,-326.19 10.03,-7.99 20,-16.63 30.22,-23.47l436.11 348.27c55.51,46.05 88.8,-4.41 88.8,-23.18l0 -1348.08c0,-18.62 -23.13,-41.75 -41.75,-41.75l-966.32 0c-18.62,0 -41.75,23.13 -41.75,41.75z"/>
 </g>
</svg>
