<svg width="40" height="55" viewBox="0 0 40 55" fill="none" xmlns="http://www.w3.org/2000/svg">
<g clip-path="url(#clip0_1_2)">
<path fill-rule="evenodd" clip-rule="evenodd" d="M3.60567 48.6112V3.7474H36.0695V48.6112L22.2822 37.5995C19.4918 35.3405 19.5987 35.7883 15.4673 39.1684C14.07 40.3113 4.83553 47.7876 3.60567 48.6112ZM-0.00151062 1.71817V52.6692C-0.00151062 53.5933 1.4177 55.1569 3.29424 53.5979C8.09688 49.6086 13.7465 45.2122 18.6954 41.2694C19.0745 40.9674 19.4513 40.6409 19.8376 40.3824L36.3205 53.5453C38.4185 55.2858 39.6767 53.3786 39.6767 52.6692V1.71817C39.6767 1.01443 38.8025 0.140221 38.0988 0.140221H1.57644C0.872694 0.140221 -0.00151062 1.01443 -0.00151062 1.71817Z" fill="#47A8E5"/>
<path d="M22.1004 14.6693C21.6163 15.234 21.8236 16.479 21.8602 17.1255C21.9603 18.895 22.0628 20.7396 22.3651 22.4889C22.504 23.2925 22.7518 22.9036 23.0025 22.3369C23.6353 20.9062 24.0445 19.2653 24.233 17.7138C24.2832 17.3004 24.2031 16.5506 24.1497 17.4442C24.0659 18.8459 23.9543 20.2482 23.8849 21.6506C23.8327 22.7074 24.0674 20.9406 24.0908 20.7191C24.1268 20.3787 24.1301 20.0407 24.1301 19.6993" stroke="black" stroke-width="3" stroke-linecap="round"/>
<path d="M20.3354 15.1105C21.4608 16.611 21.2328 22.4812 21.4728 20.621C21.6577 19.188 21.4773 17.6703 21.5807 16.2234C21.6279 15.5626 21.6944 14.9024 21.7964 14.2477C21.8426 13.9508 21.8793 13.9214 21.9827 14.2575C22.5077 15.9637 22.6211 17.776 22.9534 19.5228C23.0856 20.2175 23.2228 20.9443 23.4829 21.6065C23.4854 21.6127 23.5647 21.8673 23.5908 21.7045C23.6225 21.5059 23.6037 21.3023 23.6153 21.1015C23.7099 19.4613 24.0192 17.6356 24.8458 16.1891C24.9963 15.9258 25.1038 15.8836 25.1939 16.1989C25.4846 17.2162 25.5213 18.3524 25.5714 19.4003C25.6269 20.5615 25.6241 21.7239 25.6302 22.886C25.6323 23.2719 25.563 23.8874 25.6744 24.2882C25.7418 24.5311 25.7204 23.7853 25.7185 23.5332C25.7095 22.3668 25.6383 21.2051 25.4537 20.0523C25.3785 19.5822 25.2775 19.1162 25.1596 18.6551C25.1142 18.4777 25.1008 18.3397 25.1008 18.6551C25.1008 20.4341 25.0883 22.2562 24.787 24.0136C24.7791 24.0595 24.7454 24.1924 24.7429 24.146C24.7126 23.5864 24.6616 23.0292 24.5811 22.4742C24.2162 19.9596 23.7873 17.1812 22.7867 14.8311C22.7009 14.6295 22.4801 14.0911 22.4043 14.2967C22.298 14.5852 22.3696 14.9109 22.3651 15.2184C22.3525 16.0914 22.3532 16.6403 22.3063 17.5324C22.2226 19.1219 22.1113 20.8256 21.8258 22.3958C21.8138 22.4618 21.6932 22.324 21.6787 22.2585C21.5527 21.686 21.5822 21.0527 21.5758 20.474C21.5556 18.6472 21.5709 16.8197 21.5709 14.9928C21.5709 14.7936 21.6035 14.5126 21.566 14.3065C21.5136 14.0185 21.3888 14.865 21.3209 15.1497C20.6102 18.1299 19.9634 21.1249 19.4236 24.1411C19.2969 24.8487 19.1706 25.561 19.1147 26.2786C19.1025 26.4351 19.1183 26.9052 19.1 26.7493C18.885 24.9219 18.8533 23.0764 18.8401 21.2388C18.8215 18.6393 18.7614 16.0226 18.8549 13.424C18.8761 12.8342 18.9142 12.2418 19.0657 11.6689C19.1004 11.5374 19.2789 10.7703 19.4628 10.7129C19.9871 10.549 20.5649 13.9181 20.6002 14.1104C21.0965 16.8177 21.5646 19.533 22.169 22.2193C22.2571 22.6107 22.3482 23.0117 22.4828 23.391C22.5639 23.6197 22.5416 22.9081 22.5416 22.6654C22.5416 20.0964 22.4082 17.4826 22.6887 14.9242C22.8195 13.7308 22.9808 12.5021 23.228 11.3257C23.497 10.0451 23.3358 12.1623 23.3358 12.3553C23.3358 16.2504 23.2378 20.1596 23.375 24.0529C23.4097 25.035 23.4888 26.0088 23.6398 26.9797C23.7013 27.3753 23.7425 27.5747 23.8114 27.9455C23.8365 28.0808 23.7926 28.4275 23.9045 28.3475C24.0539 28.2408 23.896 26.8259 23.8947 26.8081C23.8207 25.744 23.6781 24.6861 23.5613 23.6263C23.3183 21.4196 23.3284 19.1955 23.0711 16.9931C22.9995 16.3802 22.9 15.7708 22.8162 15.1595C22.8155 15.1551 22.7649 14.249 22.7034 14.2182C22.5946 14.1638 21.3151 17.4842 21.2473 17.6501C19.6798 21.4848 17.688 25.577 17.688 29.8134C17.688 29.8958 17.6412 30.2855 17.7273 30.3674C17.7894 30.4266 17.8769 30.2729 17.9234 30.2007C18.0477 30.0075 18.2945 29.5249 18.3842 29.3575C19.51 27.2566 20.8981 25.3649 22.3749 23.4989C23.1257 22.5502 23.9084 21.6249 24.586 20.621C25.0006 20.0068 24.6957 21.6682 24.6693 21.8369C24.0333 25.911 21.2115 28.8109 18.1587 31.3087C17.6487 31.726 17.0882 32.1241 16.5997 32.5638C16.4934 32.6594 17.1151 31.5869 17.2125 31.4509C18.3718 29.8312 20.2985 28.68 21.9533 27.6317C22.6062 27.2181 23.279 26.8377 23.9388 26.4355C23.9509 26.4282 24.8821 25.7258 24.8409 26.0384C24.6721 27.3212 23.8258 28.6678 23.3407 29.8477C22.7057 31.3925 21.8702 32.8413 21.2375 34.3777C21.123 34.6559 21.1128 35.022 20.7571 35.0494C19.9426 35.112 19.1019 35.0543 18.2861 35.0543C17.4756 35.0543 16.665 35.0543 15.8545 35.0543C15.5462 35.0543 14.8347 35.2085 15.4279 34.9366C16.4967 34.4468 17.4923 33.8436 18.5901 33.3972C19.6918 32.9492 20.9305 32.6459 21.9288 31.9804C22.4931 31.6041 22.0913 31.2202 21.7278 31.6519C20.9895 32.5285 20.4885 33.6152 19.953 34.6179C19.5767 35.3228 19.0833 35.9389 18.6784 36.6231C18.1768 37.4706 17.7077 38.1166 16.7565 38.5351C15.7028 38.9988 14.5885 39.679 13.7218 40.4373C12.5292 41.4809 11.6543 42.9946 10.2557 43.7907C9.49477 44.2239 8.7224 44.5221 8.06423 45.1144C7.61315 45.5204 7.03229 45.7793 6.65719 46.2616C6.4171 46.5703 6.00801 46.8536 5.82375 47.1833C5.57685 47.6251 5.07879 47.79 4.71576 48.1148C4.63138 48.1903 4.26037 48.4345 4.14706 48.3697C3.90624 48.2321 4.08963 46.3402 4.10293 46.041C4.13882 45.2336 4.34822 44.3056 4.69615 43.575C5.0252 42.884 5.68318 42.7004 6.34342 42.3395C8.03336 41.4158 9.86431 40.8064 11.5549 39.898C12.436 39.4246 13.2434 38.9836 14.1778 38.6136C15.2435 38.1915 16.2986 37.7322 17.3498 37.2752C17.7276 37.1109 18.4008 36.9399 18.6489 36.579C18.7085 36.4923 18.4315 36.5709 18.3352 36.6133C17.6372 36.9204 16.9665 37.2691 16.2565 37.5546C13.9149 38.4962 11.5776 39.4315 9.24576 40.3981C7.96414 40.9294 6.57608 41.3217 5.37271 42.0258C5.13891 42.1626 4.71953 42.375 4.57849 42.6239C4.47359 42.809 4.80044 43.5361 4.85303 43.7417C5.02001 44.3944 5.19225 44.7693 5.90709 44.531C6.20352 44.4322 6.41833 44.2252 6.56894 43.9574C6.91656 43.3394 7.39974 42.9257 8.02011 42.5749C8.89017 42.0828 9.78079 41.7494 10.5842 41.1384C11.3536 40.5532 11.805 39.8751 12.2167 39.0058C13.0838 37.1753 13.9621 35.1377 13.9621 33.0932C13.9621 32.4422 13.9146 30.9593 13.1678 30.5929C12.9908 30.506 12.7006 30.5226 12.5158 30.4802C11.7816 30.3115 11.0508 30.0094 10.3685 29.6957C8.8523 28.9988 7.93992 27.7525 7.14745 26.3228C5.81919 23.9264 5.27886 21.2044 4.74517 18.5423C4.39065 16.774 4.06728 15.0061 3.6666 13.2475C3.54623 12.7192 3.4803 12.2282 3.4803 11.6885C3.4803 9.9922 3.4803 8.2959 3.4803 6.5996C3.4803 6.31899 3.27794 5.02722 3.49991 4.80525C3.54588 4.75928 3.73087 4.77759 3.78917 4.79054C4.0715 4.85328 3.92154 6.11061 3.92154 6.25642C3.92154 12.5285 3.92154 18.8005 3.92154 25.0726C3.92154 28.1187 3.92154 31.1649 3.92154 34.211C3.92154 35.9066 3.67568 37.7961 4.00978 39.4666" stroke="#47A8E5" stroke-width="3" stroke-linecap="round"/>
<path d="M4.00978 42.2023C4.42821 42.3164 5.08857 39.6776 5.19621 39.3784C5.87642 37.4872 6.69245 35.645 7.46121 33.7894C7.56333 33.5429 8.99304 29.9551 9.39283 30.1909C9.6943 30.3687 9.85545 31.1966 9.96153 31.4754C10.3558 32.5114 10.7138 33.5225 10.8293 34.6327C10.893 35.2451 10.893 35.8612 10.893 36.476C10.893 36.6346 10.8321 37.2422 11.1774 36.9859C11.6952 36.6015 12.1172 35.9194 12.5109 35.4269C13.271 34.4759 14.0398 33.5056 14.521 32.3775C14.5697 32.2633 14.8798 31.4455 14.4033 31.7597C14.0882 31.9676 13.843 32.3313 13.5895 32.603C12.8581 33.3866 12.1222 34.1656 11.3931 34.9513C10.2387 36.1953 8.90773 37.4339 8.12796 38.9666C7.99216 39.2335 7.88131 39.5135 7.73576 39.7755C7.5127 40.177 7.92532 38.8767 8.02011 38.4273C8.49138 36.1928 9.23517 34.0959 9.9027 31.9264C10.1829 31.0157 9.53378 33.8079 9.17712 34.6915C8.72987 35.7995 8.2225 36.8842 7.65731 37.937C7.64898 37.9525 6.87982 39.3653 6.78955 39.2264C6.54277 38.8467 6.51372 38.1251 6.43166 37.7017C6.23629 36.6936 5.99625 35.6368 6.07868 34.6032C6.20179 33.0596 6.92668 34.7101 7.02978 35.3631C7.15087 36.1301 7.09842 36.9269 7.09842 37.7017" stroke="#47A8E5" stroke-width="3" stroke-linecap="round"/>
<path d="M7.01017 37.9664C8.12464 35.4336 8.83961 32.6704 10.1625 30.235C10.8569 28.9567 12.0146 29.9954 12.6384 30.8773C12.9076 31.2579 13.1343 31.6682 13.3885 32.0588C13.4366 32.1327 13.738 32.4759 13.7071 32.6128C13.661 32.8172 12.7579 32.5142 12.6482 32.4951C12.2176 32.4202 11.7301 32.3332 11.3392 32.1274C10.7545 31.8197 10.3072 31.3914 9.67719 31.1322C8.61999 30.6972 7.59688 30.2512 6.60816 29.6712C5.9741 29.2993 5.21197 28.8815 4.76969 28.2691C4.46536 27.8477 4.76302 27.3646 4.87264 26.9062C4.96742 26.5098 5.0656 27.3066 5.06874 27.3376C5.2574 29.2005 4.89259 31.0036 4.30884 32.7648C3.90463 33.9842 2.56185 37.5935 3.07829 36.4172C3.60864 35.2092 4.017 33.9444 4.58829 32.755C4.93854 32.0257 5.39213 31.3486 5.9365 30.7498C6.24369 30.4119 6.37434 30.9052 6.48069 31.2008C6.73319 31.9028 6.78043 32.6505 6.97095 33.3678C6.98216 33.41 7.01017 33.5831 7.01017 33.4266C7.01017 33.031 7.05946 32.6533 7.18176 32.2745C7.66201 30.7873 8.6658 29.4338 9.84878 28.4309C10.4614 27.9114 11.1378 27.483 11.8539 27.1219C12.1373 26.979 12.7949 26.5693 13.158 26.6218C13.9975 26.7433 14.409 28.3852 14.57 29.0241C14.7227 29.6305 14.8607 30.247 14.972 30.8626C14.9909 30.9669 15.0901 31.3395 15.0357 31.4754C14.9722 31.6341 14.9524 31.7711 14.9524 31.946C14.9524 32.409 15.1585 31.0432 15.2661 30.5929C15.3004 30.4499 15.5372 29.7185 15.3054 29.6026C15.059 29.4794 14.512 30.5003 14.4376 30.6272C14.3124 30.8408 14.1731 31.332 13.8395 31.245C13.2786 31.0987 12.8506 30.1818 12.5501 29.7595C12.498 29.6862 11.517 28.3011 11.7069 28.2299C11.8119 28.1905 12.1145 28.4173 12.1579 28.4456C12.8618 28.9037 13.5199 29.4354 14.1778 29.9556C15.486 30.99 16.7736 32.0497 18.09 33.0736C18.9528 33.7446 19.759 34.5537 20.6835 35.1376C21.0275 35.3549 21.2656 35.6415 21.5807 35.8877C21.8751 36.1178 22.2194 36.2341 22.4534 36.5349C22.6932 36.8433 23.153 36.9282 23.3849 37.2654C23.811 37.8853 24.4897 38.1913 25.1008 38.5842C27.2912 39.9923 29.5865 41.0402 31.4545 42.9082C32.2427 43.6964 33.1877 44.3666 34.0186 45.1144C35.0747 46.0649 38.4958 48.5106 37.1808 47.9726C36.3025 47.6133 35.4857 46.9985 34.651 46.546C34.2234 46.3141 33.7526 46.1727 33.3371 45.9184C32.6633 45.506 32.0735 44.9626 31.3712 44.5947C30.2816 44.024 29.0985 43.6549 28.1012 42.9279C27.3395 42.3727 26.6228 41.8744 25.8067 41.408" stroke="#47A8E5" stroke-width="3" stroke-linecap="round"/>
<path d="M22.8064 30.5537C23.6165 30.5963 24.5295 31.0869 25.238 31.4362C25.937 31.7807 26.8114 32.1409 27.3952 32.6716C28.4081 33.5925 28.9516 34.9095 29.9494 35.8779C30.4641 36.3774 31.0533 36.807 31.4104 37.4418C31.7361 38.0209 31.7535 38.6117 31.9154 39.2411C32.0187 39.6429 32.2507 40.2625 32.5135 40.5746C32.6168 40.6973 32.6458 40.7351 32.7096 40.8786C32.7202 40.9023 32.7947 41.0753 32.7684 40.9766C32.5805 40.2718 32.4016 39.5657 32.2635 38.8489C32.0638 37.8129 32.1837 36.7315 32.1164 35.6818C32.0688 34.9395 32.0723 34.1994 32.0723 33.456C32.0723 32.9511 32.1264 32.4139 32.0674 31.9117C31.9884 31.2404 31.7193 30.6236 31.7193 29.936" stroke="#47A8E5" stroke-width="11" stroke-linecap="round"/>
<path d="M31.7193 29.936C31.7193 29.6794 31.7193 29.4228 31.7193 29.1663C31.7193 28.9898 31.7193 27.7732 31.7193 28.5142C31.7193 29.9307 31.8075 31.3472 31.8075 32.7599" stroke="#47A8E5" stroke-width="11" stroke-linecap="round"/>
<path d="M31.4545 30.4654C31.4545 29.0056 31.9171 27.5723 32.1164 26.1316C32.3011 24.7962 32.4252 23.5166 32.4252 22.1703" stroke="#47A8E5" stroke-width="11" stroke-linecap="round"/>
<path d="M32.4252 21.2878V22.1703" stroke="#47A8E5" stroke-width="11" stroke-linecap="round"/>
<path d="M32.4252 20.9348C32.4252 19.7238 32.2036 18.3029 32.5135 17.1255C32.8936 15.6809 32.8685 14.1172 33.2685 12.6886C33.6813 11.2144 33.3077 9.47707 33.3077 7.96252" stroke="#47A8E5" stroke-width="11" stroke-linecap="round"/>
<path d="M33.3077 7.69778C33.2426 7.52428 32.4646 7.46915 32.2978 7.45265C31.3432 7.35824 30.3841 7.39289 29.4298 7.25655C28.4087 7.11069 27.3654 7.1683 26.3362 7.1683C24.6366 7.1683 22.9371 7.1683 21.2375 7.1683C17.5157 7.1683 13.7945 6.99181 10.0694 6.99181C9.16034 6.99181 8.2603 6.81532 7.36316 6.81532" stroke="#47A8E5" stroke-width="11" stroke-linecap="round"/>
<path d="M7.36316 7.3448C7.62017 7.9873 7.45422 8.91549 7.45141 9.58038C7.44407 11.3198 7.15128 12.972 6.92193 14.6889C6.69113 16.4166 6.74544 18.1567 6.74544 19.8954C6.74544 21.5933 6.62755 23.34 6.88761 25.0236C7.17665 26.8947 8.01819 28.3258 10.0596 28.3475C10.7687 28.3551 11.3039 28.2585 11.9618 28.0142C12.3893 27.8554 12.8867 27.8765 13.3296 27.9651C14.1497 28.1291 14.9215 28.6343 15.6878 28.9604C16.3244 29.2312 16.8237 29.3182 17.5213 29.3182C18.8461 29.3182 20.0559 29.199 21.3552 28.926C22.7445 28.6342 24.2377 28.5241 25.5714 28.0142C25.9447 27.8714 25.9832 27.8602 25.9832 27.4455C25.9832 26.0858 25.9832 24.7261 25.9832 23.3665C25.9832 21.8898 26.0491 20.3951 25.9734 18.9198C25.9617 18.6921 25.9804 17.6362 25.6106 17.5814C25.3003 17.5355 25.0268 17.1977 24.7478 17.0519C24.3618 16.8503 23.9806 16.7756 23.581 16.6107C22.0898 15.9956 20.3539 15.8165 18.7568 15.8165C18.3063 15.8165 17.8542 15.8067 17.4037 15.8165C17.035 15.8245 16.6801 15.9216 16.3251 16.0126C15.6997 16.173 15.5571 16.5832 15.2662 17.1451C14.7097 18.2196 14.0577 20.295 15.0553 21.2927C15.855 22.0923 16.9608 22.4186 18.0214 22.7242C18.4083 22.8357 18.7747 23.0378 18.8843 22.484C19.1042 21.3723 18.7763 20.1675 17.9332 19.4052C17.6041 19.1077 16.4126 18.2118 16.0163 18.8806C15.7389 19.3487 15.8135 19.9329 16.1927 20.3122C16.739 20.8584 17.5033 20.7583 18.2175 20.7583" stroke="#47A8E5" stroke-width="11" stroke-linecap="round"/>
</g>
<defs>
<clipPath id="clip0_1_2">
<rect width="39.6775" height="54.1191" fill="white"/>
</clipPath>
</defs>
</svg>
