<svg width="40" height="55" viewBox="0 0 40 55" fill="none" xmlns="http://www.w3.org/2000/svg">
<g clip-path="url(#clip0_1_2)">
<path fill-rule="evenodd" clip-rule="evenodd" d="M3.60567 48.6112V3.7474H36.0695V48.6112L22.2822 37.5995C19.4918 35.3405 19.5987 35.7883 15.4673 39.1684C14.07 40.3113 4.83553 47.7876 3.60567 48.6112V48.6112ZM-0.00151062 1.71817V52.6692C-0.00151062 53.5933 1.4177 55.1569 3.29424 53.5979C8.09688 49.6086 13.7465 45.2122 18.6954 41.2694C19.0745 40.9674 19.4513 40.6409 19.8376 40.3824L36.3205 53.5453C38.4185 55.2858 39.6767 53.3786 39.6767 52.6692V1.71817C39.6767 1.01443 38.8025 0.140221 38.0988 0.140221H1.57644C0.872694 0.140221 -0.00151062 1.01443 -0.00151062 1.71817V1.71817Z" fill="white"/>
</g>
<defs>
<clipPath id="clip0_1_2">
<rect width="39.6775" height="54.1191" fill="white"/>
</clipPath>
</defs>
</svg>
