<svg width="26" height="32" viewBox="0 0 26 32" fill="none" xmlns="http://www.w3.org/2000/svg">
<path d="M2.45001 30.795C2.26174 30.9209 2.0428 30.9934 1.81657 31.0045C1.59034 31.0157 1.36533 30.9651 1.16559 30.8583C0.965852 30.7515 0.798884 30.5925 0.682533 30.3981C0.566182 30.2038 0.50482 29.9815 0.505005 29.755V6.02501C0.505003 4.70066 1.03041 3.4304 1.96593 2.493C2.90145 1.55561 4.17066 1.02766 5.49501 1.02501L20.495 0.997508C21.1516 0.996193 21.8021 1.12422 22.4092 1.37428C23.0163 1.62434 23.5682 1.99154 24.0335 2.4549C24.4987 2.91826 24.8681 3.46872 25.1206 4.07485C25.3731 4.68098 25.5037 5.3309 25.505 5.98751V29.7525C25.5052 29.979 25.4438 30.2013 25.3275 30.3956C25.2111 30.59 25.0442 30.749 24.8444 30.8558C24.6447 30.9626 24.4197 31.0132 24.1934 31.002C23.9672 30.9909 23.7483 30.9184 23.56 30.7925L13.005 23.7425L2.45001 30.7925V30.795ZM23.005 6.00001L22.9875 5.70501C22.9152 5.09648 22.6219 4.5357 22.1633 4.1292C21.7047 3.7227 21.1128 3.49879 20.5 3.50001L5.5 3.52501C4.83783 3.52633 4.20323 3.79031 3.73547 4.25901C3.26771 4.7277 3.005 5.36283 3.005 6.02501V27.4175L12.31 21.2025C12.5157 21.0649 12.7576 20.9915 13.005 20.9915C13.2525 20.9915 13.4943 21.0649 13.7 21.2025L23.005 27.4175V6.00001Z" fill="#47A8E5"/>
</svg>
