<svg width="10" height="9" viewBox="0 0 10 9" fill="none" xmlns="http://www.w3.org/2000/svg">
<path d="M3.90869 0.0109863C3.64699 0.0109863 3.3794 0.102727 3.18992 0.292089C3.00043 0.481569 2.90869 0.749146 2.90869 1.01084V1.51083H1.40869C0.580298 1.51083 -0.0913086 2.18242 -0.0913086 3.01079V7.51067C-0.0913086 8.33904 0.580298 9.01052 1.40869 9.01052H8.40857C9.23708 9.01052 9.90857 8.33904 9.90857 7.51067V3.01079C9.90857 2.18242 9.23708 1.51083 8.40857 1.51083H6.90869V1.01084C6.90869 0.749146 6.81683 0.481569 6.62735 0.292089C6.43786 0.102727 6.17039 0.0109863 5.90869 0.0109863H3.90869ZM3.90869 1.01084H5.90869V1.51083H3.90869V1.01084ZM0.908691 5.51073H8.90857V7.51067C8.90857 7.78684 8.68474 8.01054 8.40857 8.01054H1.40869C1.13252 8.01054 0.908691 7.78684 0.908691 7.51067V5.51073ZM1.40869 2.5108H8.40857C8.68474 2.5108 8.90857 2.73463 8.90857 3.01079V4.51075H0.908691V3.01079C0.908691 2.73463 1.13252 2.5108 1.40869 2.5108ZM4.90869 3.01079C4.63323 3.01079 4.40869 3.23544 4.40869 3.51078C4.40869 3.78612 4.63323 4.01076 4.90869 4.01076C5.18404 4.01076 5.40869 3.78612 5.40869 3.51078C5.40869 3.23544 5.18404 3.01079 4.90869 3.01079Z" fill="white"/>
</svg>
