<svg width="64" height="64" viewBox="0 0 64 64" fill="none" xmlns="http://www.w3.org/2000/svg">
<path fill-rule="evenodd" clip-rule="evenodd" d="M26.38 56.2277H36.8145C36.4883 56.9068 36.508 57.0523 36.0355 57.6847C35.6886 58.1488 35.4021 58.5177 34.9535 58.8382C32.725 60.4301 30.5824 60.4532 28.3147 58.8888C27.8181 58.546 27.5675 58.2289 27.2126 57.755C26.7069 57.0792 26.7318 56.9605 26.38 56.2277V56.2277ZM22.2807 50.2651V48.7744H40.9138C40.9138 50.4862 41.1938 52.501 38.6778 52.501H24.5167C23.0529 52.501 22.2807 51.7289 22.2807 50.2651V50.2651ZM41.0377 45.0478H22.1567C22.1567 43.107 21.0845 40.2871 20.4181 38.9605C18.666 35.4716 17.0018 34.5653 15.5339 31.9196C12.9388 27.244 12.217 21.9923 13.8482 16.8643C15.8585 10.5445 21.2345 5.67685 27.7977 4.35477C29.582 3.99534 31.9291 3.79805 33.8907 4.12195C35.9909 4.46929 37.3886 4.8189 39.0471 5.5491C42.5934 7.11043 46.0698 10.0649 47.7876 13.4544C49.0035 15.8532 50.016 18.0854 50.1063 21.0731C50.1237 21.6593 50.2685 21.9269 50.2348 22.5604C50.1037 25.0583 49.7563 27.1669 48.8292 29.486L47.7475 31.7579C47.461 32.3153 46.8144 33.2825 46.4088 33.7735C44.9771 35.5064 43.2722 37.6218 42.4203 39.7221C41.8881 41.034 41.0377 43.2881 41.0377 45.0478V45.0478ZM9.23755 21.5701C9.23755 26.0958 9.68618 28.7781 11.6391 32.7088C12.073 33.5822 12.5855 34.4398 13.1116 35.2112C15.0066 37.9888 18.051 40.4013 18.421 45.4295C18.7805 50.3184 17.7366 52.1994 20.5077 54.895C20.8558 55.2336 21.2202 55.4763 21.7028 55.6876C23.2766 56.3766 21.789 56.3796 23.7441 59.4845C26.1513 63.306 30.9403 64.7879 35.13 63.114C37.6932 62.0901 39.9481 59.5525 40.5925 56.9C40.7996 56.0466 40.6182 56.0549 41.3144 55.7586C41.8175 55.5443 42.1807 55.3569 42.5598 55.0167C44.5773 53.2078 44.6404 51.9802 44.6404 49.3954C44.6404 47.9671 44.7024 46.8181 44.7678 45.5478C44.9042 42.8939 46.5422 39.4352 48.2744 37.5024C50.5618 34.95 52.0872 32.0493 53.1039 28.7913C55.07 22.4889 53.6243 14.8044 49.9295 9.69751C48.9029 8.27868 48.6036 7.95666 47.4044 6.75704C43.6445 2.99754 38.0935 0.204473 32.3426 0.204473C26.6846 0.204473 23.0366 1.2635 18.7019 4.20284C15.6113 6.29821 12.9986 9.52403 11.3477 12.8731C10.365 14.8664 9.23755 18.6093 9.23755 21.5701V21.5701Z" fill="#CCCCCC"/>
<path fill-rule="evenodd" clip-rule="evenodd" d="M29.7339 9.27232C29.7339 10.6862 30.2521 11.2721 31.7084 11.3975C35.7283 11.7437 38.8717 13.1974 41.0638 16.6998C43.2563 20.2023 42.2944 22.718 43.1785 23.7774C44.2677 25.0817 46.5037 24.2937 46.5037 22.8125C46.5037 20.1275 46.111 18.4157 45.1359 16.23C44.3429 14.4529 42.7457 12.4365 41.2502 11.1719C37.296 7.82702 29.7339 6.15043 29.7339 9.27232V9.27232Z" fill="#CCCCCC"/>
<path fill-rule="evenodd" clip-rule="evenodd" d="M56.4412 34.2406C56.4412 35.41 57.6261 36.2332 58.2735 36.8803C58.8809 37.4876 59.8677 38.8369 60.9131 38.8369C61.9669 38.8369 62.9004 37.9812 62.9004 36.9736C62.9004 35.7687 61.7318 34.9973 61.0685 34.3336C60.4611 33.7262 59.4739 32.3773 58.4285 32.3773C57.3747 32.3773 56.4412 33.233 56.4412 34.2406V34.2406Z" fill="#CCCCCC"/>
<path fill-rule="evenodd" clip-rule="evenodd" d="M0.294052 36.8493C0.294052 37.903 1.14936 38.8369 2.15736 38.8369C3.36189 38.8369 4.1333 37.6679 4.79698 37.0046C5.38923 36.412 6.75326 35.3775 6.75326 34.365C6.75326 33.3112 5.89796 32.3773 4.88996 32.3773C3.68542 32.3773 2.91402 33.546 2.25034 34.2096C1.64297 34.817 0.294052 35.8038 0.294052 36.8493V36.8493Z" fill="#CCCCCC"/>
<path fill-rule="evenodd" clip-rule="evenodd" d="M56.4412 14.4896C56.4412 15.5433 57.2965 16.4772 58.3045 16.4772C59.509 16.4772 60.2804 15.3086 60.9441 14.6449C61.5364 14.0527 62.9004 13.0178 62.9004 12.0053C62.9004 10.9516 62.0451 10.0176 61.0371 10.0176C59.8326 10.0176 59.0612 11.1866 58.3975 11.85C57.7901 12.4573 56.4412 13.4445 56.4412 14.4896Z" fill="#CCCCCC"/>
<path fill-rule="evenodd" clip-rule="evenodd" d="M0.294052 11.8809C0.294052 13.0503 1.47893 13.8735 2.12599 14.5209C2.73336 15.1283 3.72057 16.4772 4.76599 16.4772C5.81972 16.4772 6.75326 15.6215 6.75326 14.6139C6.75326 13.409 5.58463 12.638 4.92095 11.9743C4.31358 11.3669 3.32675 10.0176 2.28133 10.0176C1.2276 10.0176 0.294052 10.8733 0.294052 11.8809V11.8809Z" fill="#CCCCCC"/>
<path fill-rule="evenodd" clip-rule="evenodd" d="M-0.202957 24.1788C-0.202957 25.3848 0.402145 26.2904 1.41203 26.2904H5.63528C7.78016 26.2904 7.78016 22.5642 5.63528 22.5642H1.41203C0.650082 22.5642 -0.202957 23.4172 -0.202957 24.1788V24.1788Z" fill="#CCCCCC"/>
<path fill-rule="evenodd" clip-rule="evenodd" d="M55.9442 24.1788C55.9442 25.3848 56.5493 26.2904 57.5592 26.2904H61.7824C63.9273 26.2904 63.9273 22.5642 61.7824 22.5642H57.5592C56.7972 22.5642 55.9442 23.4172 55.9442 24.1788Z" fill="#CCCCCC"/>
</svg>
