<svg width="10" height="10" viewBox="0 0 10 10" fill="none" xmlns="http://www.w3.org/2000/svg">
<path d="M4.52652 7.27598C3.9632 7.23219 3.59295 7.09557 3.1626 6.83742L2.95929 6.78946C2.73469 6.67722 2.64374 6.40411 2.75598 6.17965C2.86821 5.95491 3.14132 5.86396 3.1626 5.92823L3.36592 5.97633C3.99014 6.28838 4.30502 6.38283 4.98085 6.38283C5.8445 6.38283 6.3445 6.17453 6.3445 5.92823C6.3445 5.68207 5.8445 5.47377 4.98934 5.47364C3.69548 5.49816 2.70801 5.08048 2.70801 4.11012C2.70801 3.25914 3.44892 2.84914 4.52666 2.76359C4.52639 2.75779 4.52625 2.75213 4.52625 2.74634V2.51918C4.52625 2.26803 4.7297 2.06458 4.98085 2.06458C5.23186 2.06458 5.43544 2.26803 5.43544 2.51918V2.74634C5.43544 2.75173 5.43531 2.75725 5.43504 2.76251C6.00564 2.80778 6.40823 2.95181 7.00241 3.2489C7.22687 3.36113 7.31782 3.63424 7.20572 3.85871C7.09335 4.08331 6.82024 4.17426 6.59578 4.06202C5.97155 3.74998 5.65668 3.65553 4.98085 3.65553C4.1172 3.65553 3.6172 3.86383 3.6172 4.11012C3.6172 4.36329 4.13108 4.58062 4.98085 4.56458C6.29909 4.56458 7.25355 4.96232 7.25355 5.92823C7.25355 6.77922 6.51278 7.18921 5.43504 7.27477C5.43531 7.28043 5.43544 7.28622 5.43544 7.29202V7.51918C5.43544 7.77032 5.23186 7.97377 4.98085 7.97377C4.7297 7.97377 4.52625 7.77032 4.52625 7.51918V7.29202C4.52625 7.28663 4.52639 7.28137 4.52652 7.27598ZM4.98085 10.0193C2.21933 10.0193 -0.0192871 7.7807 -0.0192871 5.01918C-0.0192871 2.25766 2.21933 0.019043 4.98085 0.019043C7.74237 0.019043 9.98098 2.25766 9.98098 5.01918C9.98098 7.7807 7.74237 10.0193 4.98085 10.0193ZM4.98085 9.11012C7.24021 9.11012 9.07179 7.27854 9.07179 5.01918C9.07179 2.75981 7.24021 0.928232 4.98085 0.928232C2.72148 0.928232 0.889767 2.75981 0.889767 5.01918C0.889767 7.27854 2.72148 9.11012 4.98085 9.11012Z" fill="white"/>
</svg>
