<svg width="10" height="10" viewBox="0 0 10 10" fill="none" xmlns="http://www.w3.org/2000/svg">
<path fill-rule="evenodd" clip-rule="evenodd" d="M0.989169 4.74478C0.956071 4.24213 1.58951 4.03897 1.87151 4.3822C2.00964 4.55025 2.28494 5.31765 2.53174 5.69863C2.55737 5.73806 2.5809 5.77242 2.6096 5.81016C2.77681 6.02984 2.97176 6.11434 3.31211 6.11378L6.5214 6.11359C7.10185 6.11359 7.24974 6.04355 7.52466 5.52701C7.61897 5.34995 7.69187 5.17889 7.77604 4.99357C7.93426 4.6447 8.08999 4.09474 8.57593 4.2303C8.78044 4.28738 8.94077 4.42088 8.96219 4.64601C8.98324 4.86927 8.86558 5.0745 8.78867 5.25062C8.56024 5.77486 8.32359 6.36369 7.92967 6.77677C7.57669 7.14724 7.26409 7.08903 6.63925 7.08903H3.42996C2.83382 7.08903 2.47262 7.18535 2.08253 6.83367C1.83726 6.61248 1.62452 6.27131 1.4466 5.88245C1.33832 5.64549 1.00486 4.98099 0.989169 4.74478ZM6.58779 5.11317H3.36376C3.2417 4.92597 2.87476 4.08816 2.77509 3.84163C2.57249 3.33992 2.40566 2.93247 2.43072 2.31679C2.45119 1.81114 2.88184 1.38566 3.21014 1.22043C3.49386 1.07754 3.68039 1.09293 4.01882 1.09293H5.91781C6.25414 1.09293 6.44488 1.07453 6.73128 1.21554C7.06416 1.37928 7.495 1.79968 7.52006 2.30252C7.54876 2.87933 7.3739 3.36301 7.18067 3.83149C7.0898 4.05193 6.69148 4.97611 6.58779 5.11317ZM1.48582 3.21017C0.267148 3.27796 -0.378155 4.35104 0.183735 5.54654C0.417713 6.04393 0.559094 6.43974 0.851805 6.91365C0.896381 6.98557 0.935792 7.05204 0.984577 7.11607C1.01232 7.1523 1.0347 7.17972 1.06034 7.21483C1.09076 7.25614 1.10702 7.27116 1.13973 7.31021C1.33927 7.54886 1.58932 7.77813 1.89141 7.91576C2.30407 8.10409 2.60654 8.08944 3.09133 8.08944C3.55029 8.08944 4.00906 8.08944 4.46784 8.08944V9.08647C4.05421 9.13041 3.04178 9.03784 2.7198 9.11952C2.34731 9.21397 1.91417 9.62724 1.92508 10.0869H8.02303C8.03394 9.83153 7.90097 9.60827 7.77356 9.46876C7.62491 9.30616 7.45961 9.1781 7.23099 9.1199C6.91073 9.03822 5.89791 9.1306 5.48352 9.08647V8.08944C5.93751 8.08944 6.39131 8.08944 6.8453 8.08944C7.32875 8.08944 7.63658 8.10615 8.04981 7.92045C8.65131 7.65007 9.05919 7.04227 9.3387 6.48424C9.49252 6.17743 9.61668 5.86818 9.76284 5.5563C9.92565 5.2095 10.0223 4.8779 9.95817 4.44811C9.90116 4.06563 9.71731 3.82173 9.46611 3.58796C9.23769 3.37541 8.8673 3.23158 8.46095 3.21036C8.46879 3.09038 8.50017 2.97603 8.51165 2.85229C8.52408 2.71842 8.53174 2.59806 8.53537 2.46193C8.55182 1.83423 8.34941 1.39073 7.96372 0.931268C7.63237 0.53621 7.15561 0.233345 6.64002 0.13627C6.22888 0.0589106 4.73223 0.0960881 4.13667 0.0960881C3.38729 0.0960881 2.94364 0.115052 2.3188 0.605871C2.14853 0.73956 2.21741 0.697125 2.09898 0.809033C1.86673 1.02797 1.62586 1.4112 1.52102 1.71538C1.39495 2.08095 1.40088 2.45836 1.4355 2.84272C1.44641 2.96476 1.48276 3.09827 1.48582 3.21017Z" fill="white"/>
</svg>
