<?xml version="1.0" encoding="UTF-8"?>
<!DOCTYPE svg PUBLIC "-//W3C//DTD SVG 1.1//EN" "http://www.w3.org/Graphics/SVG/1.1/DTD/svg11.dtd">
<!-- Creator: CorelDRAW 2020 (64-Bit) -->
<svg xmlns="http://www.w3.org/2000/svg" xml:space="preserve" width="7.465mm" height="11.35mm" version="1.1" style="shape-rendering:geometricPrecision; text-rendering:geometricPrecision; image-rendering:optimizeQuality; fill-rule:evenodd; clip-rule:evenodd"
viewBox="0 0 746.5 1135"
 xmlns:xlink="http://www.w3.org/1999/xlink"
 xmlns:xodm="http://www.corel.com/coreldraw/odm/2003">
 <defs>
  <style type="text/css">
   <![CDATA[
    .fil0 {fill:url(#id0)}
    .fil1 {fill:url(#id1);fill-rule:nonzero}
   ]]>
  </style>
  <linearGradient id="id0" gradientUnits="userSpaceOnUse" x1="675.45" y1="586.21" x2="55.56" y2="174.57">
   <stop offset="0" style="stop-opacity:1; stop-color:#F12D11"/>
   <stop offset="1" style="stop-opacity:1; stop-color:#F5AF19"/>
  </linearGradient>
  <linearGradient id="id1" gradientUnits="userSpaceOnUse" xlink:href="#id0" x1="496.47" y1="1187.67" x2="234.53" y2="780.08">
  </linearGradient>
 </defs>
 <g id="Слой_x0020_1">
  <metadata id="CorelCorpID_0Corel-Layer"/>
  <g id="_2258802617648">
   <path class="fil0" d="M640.83 286.16c9.38,17.13 16.55,71.57 16.68,94.14 0.16,30.73 -7.4,67.47 -16.46,94.75 -26.94,81.13 -86.06,139.6 -160.49,172.79 -78.68,35.08 -174.61,30.07 -249.31,-8.83 -6.79,-3.54 -10.84,-7.27 -18.22,-9.25l-29.85 -22.27c-32.98,-25.73 -49.19,-49.01 -70.23,-82.31l-2 -2.74c-0.13,-0.17 -0.46,-0.58 -0.72,-0.83 -4.01,-8.54 -8.2,-15.79 -11.86,-24.97 -7.9,-19.77 -12.97,-33.61 -17.58,-55.37 -2.27,-10.7 -3.25,-21.21 -5.38,-31.56 0,-27.91 -4.41,-40.12 2.85,-77.94 4.67,-24.27 10.3,-45.23 19.27,-65.3 22.34,-49.98 49.57,-85.32 92.04,-118.54 39.57,-30.94 102.59,-56.16 154.45,-57.79 8.52,-0.26 10.41,-1.7 19.88,-1.75 9.51,-0.05 12.34,1.38 19.93,1.74 10.32,0.49 31.54,1.34 37.5,4.99 23.58,0.46 78.08,24.3 99.46,38.79 5.11,3.47 7.23,5.14 12.72,7.64l7.8 6.64c2.9,2.15 6.51,4.56 9.49,7.11 3.34,2.86 4.12,4.22 7.82,7.1 12.36,9.6 29.08,28.78 38.39,41.21 5.1,6.81 8.19,11.37 12.98,18.52 9.94,14.83 27.34,47.47 30.84,64.03zm-588.29 293.13c4.06,9.98 23.43,35 32.42,45.17l53.93 50.53c5.68,4.24 9.32,8.77 16.84,10.42 1.33,3.46 -0.73,1.14 3.24,4.29 1.35,1.08 4.67,2.71 6.28,3.69 4.19,2.56 7.01,4.53 11.21,7.04 20.05,12.02 56.34,28.62 79.09,35.32 98.63,29.08 188.99,20.2 280.82,-25.47 8.01,-3.98 16.97,-8.68 24.56,-13.57 77.56,-49.93 135.62,-120.33 162.45,-215.61 10.61,-37.69 17.73,-87.77 12.26,-135.9 -2.66,-23.43 -5.4,-42.93 -11.32,-63.3 -3.89,-13.38 -14.07,-44.85 -20.48,-55.43 -13.95,-29.71 -28.33,-54.07 -47.86,-78.52l-29.62 -33.38c-5.45,-5.21 -29.07,-25.91 -35.28,-28.93 -10.72,-11.51 -48.85,-33.3 -62.3,-39.31 -5.45,-2.44 -8.23,-4.15 -13.49,-6.41 -7.19,-3.08 -23.3,-10.57 -30.86,-11.13 -3.58,-3.15 -16.84,-6.2 -21.72,-7.59 -106.65,-30.23 -229.67,-6.41 -318.14,60.17l-17.53 13.98c-7.57,6.12 -26.24,22.42 -31.73,29.62 -22.6,29.61 -26.6,25.58 -52.99,71.37 -38.08,66.06 -56.55,151.98 -45.82,229.72 1.93,13.94 5.86,42.76 10.6,52.09 3.97,23.73 20.5,56.73 31.27,78.49l14.17 22.65zm368.55 -343.23c-6.2,-6.34 -9.73,-10.21 -16.66,-15.63 -7.12,-5.57 -9.28,-9.37 -18.68,-12.83 -43.46,-16 -60.39,17.46 -84.14,35.79l-33.44 31.23c-13.16,13.33 -61.15,42.59 -24.1,79.64 12.1,12.1 28.22,17.34 46.42,7.34 16.23,-8.91 24.76,-25.79 35.3,-28.65 0,18.56 -1.73,182.2 0.95,192.33 9.41,35.61 66.08,37.11 77.29,1.27 3.41,-10.89 1.35,-174.78 1.35,-194.32 16.3,8.63 43.45,56.02 80.01,23.64 17.86,-15.82 20.68,-39.84 2.51,-58.08 -3.92,-3.93 -6.76,-6.91 -10.78,-10.78 -4.5,-4.33 -7.14,-5.4 -11.67,-9.88l-44.36 -41.07z"/>
   <path class="fil1" d="M0.72 881.97c-5.65,-5.65 -8.48,-13.02 -8.48,-22.12 0,-9.1 2.83,-16.47 8.48,-22.12 5.64,-5.65 12.86,-8.47 21.64,-8.47l154.39 0c8.79,0 16,2.9 21.65,8.7 5.65,5.81 8.47,13.26 8.47,22.36 0,9.1 -2.74,16.4 -8.23,21.89 -5.5,5.49 -12.79,8.23 -21.89,8.23l-42.83 0 0 216.99c0,10.04 -3.22,18.12 -9.65,24.24 -6.43,6.12 -14.67,9.18 -24.71,9.18 -10.04,0 -18.2,-3.06 -24.48,-9.18 -6.27,-6.12 -9.41,-14.2 -9.41,-24.24l0 -216.99 -43.31 0c-8.78,0 -16,-2.82 -21.64,-8.47zm460.32 47.54l0 108.73c0,32.01 -10.28,57.5 -30.83,76.48 -20.55,18.99 -47.62,28.48 -81.19,28.48 -33.58,0 -60.64,-9.49 -81.19,-28.48 -20.56,-18.98 -30.84,-44.47 -30.84,-76.48l0 -108.73c0,-32.63 9.66,-58.29 28.95,-76.95 19.3,-18.68 46.99,-28.01 83.08,-28.01 33.57,0 60.64,9.49 81.19,28.47 20.55,18.99 30.83,44.48 30.83,76.49zm-155.79 1.42l0 105.9c0,13.8 3.91,24.79 11.76,32.95 7.85,8.15 18.52,12.23 32.01,12.23 13.49,0 24.16,-4.08 32,-12.23 7.85,-8.16 11.77,-19.15 11.77,-32.95l0 -105.9c0,-13.81 -3.92,-24.79 -11.77,-32.95 -7.84,-8.16 -18.51,-12.24 -32,-12.24 -13.49,0 -24.16,4.08 -32.01,12.24 -7.85,8.16 -11.76,19.14 -11.76,32.95zm212.27 176.5l0 -244.76c0,-10.04 3.06,-18.12 9.18,-24.23 6.12,-6.12 14.2,-9.18 24.24,-9.18l79.55 0c31.69,0 57.66,9.33 77.89,28 20.25,18.67 30.37,43.07 30.37,73.19 0,31.7 -10.12,57.11 -30.37,76.25 -20.23,19.14 -46.2,28.72 -77.89,28.72l-44.71 0 0 72.01c0,10.04 -3.22,18.12 -9.66,24.24 -6.43,6.12 -14.67,9.18 -24.71,9.18 -10.04,0 -18.2,-3.06 -24.47,-9.18 -6.28,-6.12 -9.42,-14.2 -9.42,-24.24zm106.85 -218.4l-38.59 0 0 86.61 38.59 0c13.81,0 24.71,-3.92 32.71,-11.77 8,-7.84 12.01,-18.51 12.01,-32.01 0,-13.17 -4.01,-23.61 -12.01,-31.29 -8,-7.69 -18.9,-11.54 -32.71,-11.54z"/>
  </g>
 </g>
</svg>
